<?xml version="1.0" encoding="utf-8" ?>
<svg baseProfile="full" height="400" version="1.1" width="600" xmlns="http://www.w3.org/2000/svg" xmlns:ev="http://www.w3.org/2001/xml-events" xmlns:xlink="http://www.w3.org/1999/xlink"><defs /><rect fill="#0a0a0a" height="400" width="600" x="0" y="0" /><circle cx="300.0" cy="200.0" fill="none" opacity="0.3" r="30.0" stroke="#4A0000" stroke-width="1" /><circle cx="300.0" cy="200.0" fill="none" opacity="0.3" r="60.0" stroke="#4A0000" stroke-width="1" /><circle cx="300.0" cy="200.0" fill="none" opacity="0.3" r="90.0" stroke="#4A0000" stroke-width="1" /><circle cx="300.0" cy="200.0" fill="none" opacity="0.3" r="120.0" stroke="#4A0000" stroke-width="1" /><circle cx="300.0" cy="200.0" fill="none" opacity="0.3" r="150.0" stroke="#4A0000" stroke-width="1" /><circle cx="312.1212121212121" cy="200.0" fill="#8B0000" r="5" /><text fill="#F5F5DC" font-size="10" x="322.1212121212121" y="200.0">JavaScript</text><line stroke="#DC143C" stroke-width="2" x1="312.1212121212121" x2="303.03030767288" y1="200.0" y2="205.248636130419" /><circle cx="303.03030767288" cy="205.248636130419" fill="#8B0000" r="5" /><text fill="#F5F5DC" font-size="10" x="313.03030767288" y="205.248636130419">C#</text><line stroke="#DC143C" stroke-width="2" x1="303.03030767288" x2="298.484853127429" y1="205.248636130419" y2="202.62432208579702" /><circle cx="298.484853127429" cy="202.62432208579702" fill="#8B0000" r="5" /><text fill="#F5F5DC" font-size="10" x="308.484853127429" y="202.62432208579702">HTML</text><line stroke="#DC143C" stroke-width="2" x1="298.484853127429" x2="298.48484848485384" y1="202.62432208579702" y2="200.0000040205906" /><circle cx="298.48484848485384" cy="200.0000040205906" fill="#8B0000" r="5" /><text fill="#F5F5DC" font-size="10" x="308.48484848485384" y="200.0000040205906">R</text><line stroke="#DC143C" stroke-width="2" x1="298.48484848485384" x2="299.24241959985085" y1="200.0000040205906" y2="198.68784297769824" /><circle cx="299.24241959985085" cy="198.68784297769824" fill="#8B0000" r="5" /><text fill="#F5F5DC" font-size="10" x="309.24241959985085" y="198.68784297769824">POV-Ray SDL</text><line stroke="#DC143C" stroke-width="2" x1="299.24241959985085" x2="300.7575699543457" y1="198.68784297769824" y2="198.687836946817" /><circle cx="300.7575699543457" cy="198.687836946817" fill="#8B0000" r="5" /><text fill="#F5F5DC" font-size="10" x="310.7575699543457" y="198.687836946817">Python</text><line stroke="#DC143C" stroke-width="2" x1="300.7575699543457" x2="312.1212121212121" y1="198.687836946817" y2="200.0" /><text class="skill-title" text-anchor="middle" x="300.0" y="30">LANGUAGE MASTERY RADAR</text></svg>