<?xml version="1.0" encoding="utf-8" ?>
<svg baseProfile="full" height="640" version="1.1" width="1280" xmlns="http://www.w3.org/2000/svg" xmlns:ev="http://www.w3.org/2001/xml-events" xmlns:xlink="http://www.w3.org/1999/xlink"><defs><linearGradient id="skillGradient" x1="0%" x2="100%" y1="0%" y2="0%"><stop offset="0" stop-color="#6366f1" /><stop offset="0.5" stop-color="#8b5cf6" /><stop offset="1" stop-color="#ec4899" /></linearGradient><linearGradient id="shineGradient" x1="0%" x2="0%" y1="0%" y2="100%"><stop offset="0" stop-color="#ffffff" stop-opacity="0.2" /><stop offset="0.5" stop-color="#ffffff" stop-opacity="0" /><stop offset="1" stop-color="#000000" stop-opacity="0.1" /></linearGradient><linearGradient id="bgGradient" x1="0%" x2="0%" y1="0%" y2="100%"><stop offset="0" stop-color="#0f172a" /><stop offset="1" stop-color="#1e293b" /></linearGradient></defs><style type="text/css"><![CDATA[
            @import url('https://fonts.googleapis.com/css2?family=Inter:wght@400;600;700&display=swap');
            
            .title { 
                fill: #f1f5f9; 
                font-family: 'Inter', sans-serif; 
                font-size: 28px;
                font-weight: 700;
                letter-spacing: -0.5px;
            }
            .subtitle { 
                fill: #94a3b8; 
                font-family: 'Inter', sans-serif; 
                font-size: 14px;
                font-weight: 400;
            }
            .skill-name { 
                fill: #f1f5f9; 
                font-family: 'Inter', sans-serif; 
                font-size: 16px; 
                font-weight: 600;
            }
            .skill-meta { 
                fill: #94a3b8; 
                font-family: 'Inter', sans-serif; 
                font-size: 13px; 
                font-weight: 400;
            }
            .bar-bg { 
                fill: #1e293b;
                rx: 8;
            }
            .bar-fill { 
                fill: url(#skillGradient);
                rx: 8;
                animation: slideIn 1.2s cubic-bezier(0.4, 0, 0.2, 1) forwards, pulse 3s ease-in-out infinite;
                transform-origin: left;
            }
            .bar-shine {
                fill: url(#shineGradient);
                rx: 8;
                opacity: 0.4;
            }
            @keyframes slideIn {
                from { 
                    transform: scaleX(0);
                    opacity: 0;
                }
                to { 
                    transform: scaleX(1);
                    opacity: 1;
                }
            }
            @keyframes pulse {
                0%, 100% { opacity: 1; }
                50% { opacity: 0.85; }
            }
            .card {
                filter: drop-shadow(0 4px 6px rgba(0, 0, 0, 0.3));
            }
            .badge {
                fill: #334155;
                rx: 6;
            }
            .badge-text {
                fill: #f1f5f9;
                font-family: 'Inter', sans-serif;
                font-size: 11px;
                font-weight: 600;
                text-transform: uppercase;
                letter-spacing: 0.5px;
            }
        ]]></style><rect fill="url(#bgGradient)" height="640" width="1280" x="0" y="0" /><text class="title" x="50" y="45">Dao Paths &amp; Cultivation</text><text class="subtitle" x="50" y="68">Programming languages ranked by cultivation level</text><text class="skill-name" x="70" y="132">JavaScript</text><rect class="badge" height="20" width="40" x="170" y="119" /><text class="badge-text" text-anchor="middle" x="190" y="132">L6</text><rect class="bar-bg" height="32" width="550" x="320" y="113" /><rect class="bar-fill" height="32" style="animation-delay: 0.0s;" width="33.333333333333336" x="320" y="113" /><rect class="bar-shine" height="32" width="33.333333333333336" x="320" y="113" /><text class="skill-meta" x="890" y="134">65.2% mastery | 2183 Qi</text><text class="skill-name" x="70" y="192">C#</text><rect class="badge" height="20" width="40" x="98" y="179" /><text class="badge-text" text-anchor="middle" x="118" y="192">L3</text><rect class="bar-bg" height="32" width="550" x="320" y="173" /><rect class="bar-fill" height="32" style="animation-delay: 0.1s;" width="16.666666666666668" x="320" y="173" /><rect class="bar-shine" height="32" width="16.666666666666668" x="320" y="173" /><text class="skill-meta" x="890" y="194">13.9% mastery | 466 Qi</text><text class="skill-name" x="70" y="252">HTML</text><rect class="badge" height="20" width="40" x="116" y="239" /><text class="badge-text" text-anchor="middle" x="136" y="252">L2</text><rect class="bar-bg" height="32" width="550" x="320" y="233" /><rect class="bar-fill" height="32" style="animation-delay: 0.2s;" width="11.111111111111112" x="320" y="233" /><rect class="bar-shine" height="32" width="11.111111111111112" x="320" y="233" /><text class="skill-meta" x="890" y="254">6.6% mastery | 221 Qi</text><text class="skill-name" x="70" y="312">R</text><rect class="badge" height="20" width="40" x="89" y="299" /><text class="badge-text" text-anchor="middle" x="109" y="312">L1</text><rect class="bar-bg" height="32" width="550" x="320" y="293" /><rect class="bar-fill" height="32" style="animation-delay: 0.30000000000000004s;" width="5.555555555555556" x="320" y="293" /><rect class="bar-shine" height="32" width="5.555555555555556" x="320" y="293" /><text class="skill-meta" x="890" y="314">3.0% mastery | 101 Qi</text><text class="skill-name" x="70" y="372">POV-Ray SDL</text><rect class="badge" height="20" width="40" x="179" y="359" /><text class="badge-text" text-anchor="middle" x="199" y="372">L1</text><rect class="bar-bg" height="32" width="550" x="320" y="353" /><rect class="bar-fill" height="32" style="animation-delay: 0.4s;" width="5.555555555555556" x="320" y="353" /><rect class="bar-shine" height="32" width="5.555555555555556" x="320" y="353" /><text class="skill-meta" x="890" y="374">2.6% mastery | 85 Qi</text><text class="skill-name" x="70" y="432">Python</text><rect class="badge" height="20" width="40" x="134" y="419" /><text class="badge-text" text-anchor="middle" x="154" y="432">L1</text><rect class="bar-bg" height="32" width="550" x="320" y="413" /><rect class="bar-fill" height="32" style="animation-delay: 0.5s;" width="5.555555555555556" x="320" y="413" /><rect class="bar-shine" height="32" width="5.555555555555556" x="320" y="413" /><text class="skill-meta" x="890" y="434">1.7% mastery | 56 Qi</text><text class="skill-name" x="70" y="492">CSS</text><rect class="badge" height="20" width="40" x="107" y="479" /><text class="badge-text" text-anchor="middle" x="127" y="492">L1</text><rect class="bar-bg" height="32" width="550" x="320" y="473" /><rect class="bar-fill" height="32" style="animation-delay: 0.6000000000000001s;" width="5.555555555555556" x="320" y="473" /><rect class="bar-shine" height="32" width="5.555555555555556" x="320" y="473" /><text class="skill-meta" x="890" y="494">1.6% mastery | 53 Qi</text><text class="skill-name" x="70" y="552">C</text><rect class="badge" height="20" width="40" x="89" y="539" /><text class="badge-text" text-anchor="middle" x="109" y="552">L1</text><rect class="bar-bg" height="32" width="550" x="320" y="533" /><rect class="bar-fill" height="32" style="animation-delay: 0.7000000000000001s;" width="5.555555555555556" x="320" y="533" /><rect class="bar-shine" height="32" width="5.555555555555556" x="320" y="533" /><text class="skill-meta" x="890" y="554">1.5% mastery | 49 Qi</text><text class="subtitle" text-anchor="middle" x="640.0" y="615">Last updated: October 21, 2025 at 12:49</text></svg>